<svg xmlns="http://www.w3.org/2000/svg" viewBox="0 0 368.65 72.46"><title>Zasób 3</title><g id="Warstwa_2" data-name="Warstwa 2"><g id="Warstwa_1-2" data-name="Warstwa 1"><path d="M11.62,84.16a14.34,14.34,0,0,1-6.13-6A19.69,19.69,0,0,1,3.37,68.7V64.89l12.06-.1V68.6a5.78,5.78,0,0,0,1.51,4.23,5.65,5.65,0,0,0,4.2,1.54,5.36,5.36,0,0,0,4.08-1.52,5.77,5.77,0,0,0,1.44-4.15V62.5a5.44,5.44,0,0,0-1.1-3.39,10.1,10.1,0,0,0-2.83-2.49Q21,55.57,18,54.1l-.37-.19-.36-.2-.64-.29a41.51,41.51,0,0,1-6.74-4.18,17.39,17.39,0,0,1-4.64-5.73,19,19,0,0,1-1.85-8.79V31.05a19.53,19.53,0,0,1,2.07-9.3,14.09,14.09,0,0,1,6-5.93A20.43,20.43,0,0,1,21,13.77a19.77,19.77,0,0,1,9.33,2.05,13.88,13.88,0,0,1,6,6,20.16,20.16,0,0,1,2.05,9.45v4l-12.06.15v-4a6.15,6.15,0,0,0-1.39-4.27A5,5,0,0,0,21,25.54,5.61,5.61,0,0,0,17,26.93a5.07,5.07,0,0,0-1.44,3.83V35.5a5.77,5.77,0,0,0,1,3.46,9.41,9.41,0,0,0,2.63,2.47c1.06.67,2.53,1.47,4.42,2.42.36.16.73.34,1.1.53s.76.4,1.15.59l.17.1.17.1a52.4,52.4,0,0,1,6.54,4A14.8,14.8,0,0,1,37,54.3a18.07,18.07,0,0,1,1.76,8.49V68.7a19.92,19.92,0,0,1-2.08,9.45,14.05,14.05,0,0,1-6,6,20.15,20.15,0,0,1-9.47,2.07A20.6,20.6,0,0,1,11.62,84.16Z" transform="translate(-3.37 -13.77)"/><path d="M55.83,84.25a14.08,14.08,0,0,1-6.22-5.71,17.8,17.8,0,0,1-2.15-9V30.47a17.91,17.91,0,0,1,2.15-9,13.87,13.87,0,0,1,6.22-5.72,22.57,22.57,0,0,1,9.8-2,22.55,22.55,0,0,1,9.79,2,13.87,13.87,0,0,1,6.22,5.72,17.91,17.91,0,0,1,2.15,9V69.53a17.8,17.8,0,0,1-2.15,9,14.08,14.08,0,0,1-6.22,5.71,22.26,22.26,0,0,1-9.79,2A22.27,22.27,0,0,1,55.83,84.25Zm13-10.86a4.79,4.79,0,0,0,2-2.1A7.44,7.44,0,0,0,71.53,68v-36a7.31,7.31,0,0,0-.68-3.27,4.79,4.79,0,0,0-2-2.1,6.54,6.54,0,0,0-3.19-.73,6.44,6.44,0,0,0-3.18.73,4.78,4.78,0,0,0-2,2.1,7.18,7.18,0,0,0-.68,3.27V68a7.31,7.31,0,0,0,.68,3.32,4.78,4.78,0,0,0,2,2.1,6.44,6.44,0,0,0,3.18.73A6.54,6.54,0,0,0,68.82,73.39Z" transform="translate(-3.37 -13.77)"/><path d="M100.34,84.11a14.12,14.12,0,0,1-5.83-6.18,21.66,21.66,0,0,1-2-9.77V31.84a21.66,21.66,0,0,1,2-9.77,14.12,14.12,0,0,1,5.83-6.18,21,21,0,0,1,18.39,0,14,14,0,0,1,5.83,6.2,22.12,22.12,0,0,1,2,9.79V37.6H114.31V31.88a8.21,8.21,0,0,0-.54-3.12,4.25,4.25,0,0,0-1.64-2,4.71,4.71,0,0,0-2.61-.7,4.59,4.59,0,0,0-2.54.68,4.29,4.29,0,0,0-1.63,2,7.85,7.85,0,0,0-.56,3.13V68.16a7.63,7.63,0,0,0,.56,3.1,4.24,4.24,0,0,0,1.63,2,4.6,4.6,0,0,0,2.54.69,4.8,4.8,0,0,0,2.64-.69,4.14,4.14,0,0,0,1.61-2,8.14,8.14,0,0,0,.54-3.14V62.4h12.25v5.72a22.12,22.12,0,0,1-2,9.79,14,14,0,0,1-5.83,6.2,21,21,0,0,1-18.39,0Z" transform="translate(-3.37 -13.77)"/><path d="M145.41,85.5H133.3v-71h12.11Z" transform="translate(-3.37 -13.77)"/><path d="M166.65,14.5h8.5l16.94,71h-12L170.9,39,161.72,85.5h-12Zm-5.42,48.63h19.34V74.46H161.23Z" transform="translate(-3.37 -13.77)"/><path d="M197.36,14.5h12.11v71H197.36Zm5,59.38h25.59V85.5H202.34Z" transform="translate(-3.37 -13.77)"/><path d="M262.35,14.5h8.5l16.94,71h-12L266.6,39,257.42,85.5h-12Zm-5.42,48.63h19.34V74.46H256.93Z" transform="translate(-3.37 -13.77)"/><path d="M293.07,14.5h12.11v71H293.07Zm5.66,31.84h12.55a4.6,4.6,0,0,0,2.54-.69,4.42,4.42,0,0,0,1.66-2,7.65,7.65,0,0,0,.58-3.12V32.18a8.47,8.47,0,0,0-.56-3.27,4.41,4.41,0,0,0-1.63-2.08,4.63,4.63,0,0,0-2.59-.71H298.73V14.5h12.89a20.14,20.14,0,0,1,9,1.86,12.77,12.77,0,0,1,5.72,5.44,17.82,17.82,0,0,1,1.95,8.62v12a16.85,16.85,0,0,1-2,8.43,13,13,0,0,1-5.73,5.32,20.39,20.39,0,0,1-9,1.83H298.73Z" transform="translate(-3.37 -13.77)"/><path d="M336.77,14.5h12.11v71H336.77Zm5.66,31.84H355a4.6,4.6,0,0,0,2.54-.69,4.35,4.35,0,0,0,1.66-2,7.65,7.65,0,0,0,.59-3.12V32.18a8.47,8.47,0,0,0-.57-3.27,4.41,4.41,0,0,0-1.63-2.08,4.63,4.63,0,0,0-2.59-.71H342.43V14.5h12.89a20.22,20.22,0,0,1,9,1.86,12.74,12.74,0,0,1,5.71,5.44A17.82,17.82,0,0,1,372,30.42v12a16.85,16.85,0,0,1-2,8.43,12.91,12.91,0,0,1-5.73,5.32,20.39,20.39,0,0,1-9,1.83H342.43Z" transform="translate(-3.37 -13.77)"/></g></g></svg>